<svg width="42" height="42" viewBox="0 0 42 42" fill="none" xmlns="http://www.w3.org/2000/svg">
<circle cx="21" cy="21" r="21" fill="url(#paint0_linear_8:466)"/>
<path d="M26.2225 19.8367L18.6573 12.2716C18.4823 12.0965 18.2487 12 17.9997 12C17.7506 12 17.5171 12.0965 17.3421 12.2716L16.785 12.8286C16.4224 13.1915 16.4224 13.7814 16.785 14.1438L23.1377 20.4965L16.7779 26.8562C16.6029 27.0313 16.5063 27.2648 16.5063 27.5137C16.5063 27.7629 16.6029 27.9963 16.7779 28.1716L17.335 28.7284C17.5102 28.9035 17.7436 29 17.9926 29C18.2417 29 18.4753 28.9035 18.6503 28.7284L26.2225 21.1564C26.3979 20.9808 26.4942 20.7462 26.4937 20.4969C26.4942 20.2466 26.3979 20.0122 26.2225 19.8367Z" fill="white"/>
<defs>
<linearGradient id="paint0_linear_8:466" x1="3.12924e-07" y1="42" x2="43.1981" y2="40.7293" gradientUnits="userSpaceOnUse">
<stop stop-color="#259BDE"/>
<stop offset="1" stop-color="#5BC4FF"/>
</linearGradient>
</defs>
</svg>
