<svg width="42" height="42" viewBox="0 0 42 42" fill="none" xmlns="http://www.w3.org/2000/svg">
<circle cx="21" cy="21" r="21" fill="url(#paint0_linear_8:467)"/>
<path d="M14.7775 21.1633L22.3427 28.7284C22.5177 28.9035 22.7513 29 23.0003 29C23.2494 29 23.483 28.9035 23.6579 28.7284L24.2151 28.1714C24.5776 27.8085 24.5776 27.2186 24.2151 26.8562L17.8624 20.5035L24.2221 14.1438C24.3971 13.9687 24.4937 13.7352 24.4937 13.4863C24.4937 13.2371 24.3971 13.0037 24.2221 12.8284L23.665 12.2716C23.4899 12.0965 23.2564 12 23.0074 12C22.7583 12 22.5247 12.0965 22.3498 12.2716L14.7775 19.8436C14.6021 20.0192 14.5058 20.2538 14.5063 20.5031C14.5058 20.7534 14.6021 20.9878 14.7775 21.1633Z" fill="white"/>
<defs>
<linearGradient id="paint0_linear_8:467" x1="3.12924e-07" y1="42" x2="43.1981" y2="40.7293" gradientUnits="userSpaceOnUse">
<stop stop-color="#259BDE"/>
<stop offset="1" stop-color="#5BC4FF"/>
</linearGradient>
</defs>
</svg>
