<svg width="28" height="28" viewBox="0 0 28 28" fill="none" xmlns="http://www.w3.org/2000/svg">
<path d="M7 0C6.0375 0 5.25 0.7875 5.25 1.75V26.25C5.25 27.2125 6.0375 28 7 28H24.5C25.4625 28 26.25 27.2125 26.25 26.25V7L19.25 0H7Z" fill="#E2E5E7"/>
<path d="M21 7H26.25L19.25 0V5.25C19.25 6.2125 20.0375 7 21 7Z" fill="#B0B7BD"/>
<path d="M26.25 12.25L21 7H26.25V12.25Z" fill="#CAD1D8"/>
<path d="M22.75 22.75C22.75 23.2312 22.3563 23.625 21.875 23.625H2.625C2.14375 23.625 1.75 23.2312 1.75 22.75V14C1.75 13.5187 2.14375 13.125 2.625 13.125H21.875C22.3563 13.125 22.75 13.5187 22.75 14V22.75Z" fill="#F15642"/>
<path d="M5.56412 16.5786C5.56412 16.3476 5.74612 16.0956 6.03924 16.0956H7.65537C8.56537 16.0956 9.38437 16.7046 9.38437 17.8718C9.38437 18.9778 8.56537 19.5938 7.65537 19.5938H6.48724V20.5178C6.48724 20.8258 6.29124 21 6.03924 21C5.80824 21 5.56412 20.8258 5.56412 20.5178V16.5786ZM6.48724 16.9767V18.7197H7.65537C8.12437 18.7197 8.49537 18.3058 8.49537 17.8718C8.49537 17.3827 8.12437 16.9767 7.65537 16.9767H6.48724Z" fill="white"/>
<path d="M10.7546 20.9999C10.5236 20.9999 10.2716 20.8739 10.2716 20.5668V16.5926C10.2716 16.3414 10.5236 16.1586 10.7546 16.1586H12.3567C15.554 16.1586 15.484 20.9999 12.4197 20.9999H10.7546ZM11.1956 17.0126V20.1468H12.3567C14.2459 20.1468 14.3299 17.0126 12.3567 17.0126H11.1956Z" fill="white"/>
<path d="M16.618 17.0686V18.1807H18.4021C18.6541 18.1807 18.9061 18.4327 18.9061 18.6768C18.9061 18.9078 18.6541 19.0968 18.4021 19.0968H16.618V20.566C16.618 20.811 16.4439 20.9991 16.1989 20.9991C15.8909 20.9991 15.7027 20.811 15.7027 20.566V16.5917C15.7027 16.3406 15.8917 16.1577 16.1989 16.1577H18.655C18.963 16.1577 19.145 16.3406 19.145 16.5917C19.145 16.8157 18.963 17.0677 18.655 17.0677H16.618V17.0686Z" fill="white"/>
<path d="M21.875 23.625H5.25V24.5H21.875C22.3563 24.5 22.75 24.1063 22.75 23.625V22.75C22.75 23.2313 22.3563 23.625 21.875 23.625Z" fill="#CAD1D8"/>
</svg>
