<svg width="45" height="45" viewBox="0 0 45 45" fill="none" xmlns="http://www.w3.org/2000/svg">
<g clip-path="url(#clip0_8:33)">
<path d="M9.40427 16.6992C9.40427 23.9688 15.3184 29.8829 22.5879 29.8829C29.8574 29.8829 35.7715 23.9688 35.7715 16.6992C35.7715 9.42971 29.8574 3.51562 22.5879 3.51562C15.3184 3.51562 9.40427 9.42971 9.40427 16.6992ZM22.5879 5.27344C28.8882 5.27344 34.0137 10.3989 34.0137 16.6992C34.0137 22.9996 28.8882 28.125 22.5879 28.125C16.2876 28.125 11.1621 22.9996 11.1621 16.6992C11.1621 10.3989 16.2876 5.27344 22.5879 5.27344Z" fill="url(#paint0_linear_8:33)"/>
<path d="M14.4484 15.1323L17.8552 18.489L17.0714 23.2066C17.0168 23.5352 17.1524 23.8661 17.4219 24.0618C17.6911 24.2575 18.0478 24.2839 18.3434 24.1308L22.5879 21.9267L26.8321 24.1308C27.1253 24.2829 27.482 24.2592 27.7535 24.0618C28.0231 23.8661 28.1587 23.5352 28.1041 23.2066L27.3203 18.489L30.7271 15.1323C30.9643 14.8989 31.0491 14.5514 30.9461 14.2345C30.8431 13.918 30.5702 13.6869 30.2409 13.6371L25.513 12.9254L23.3738 8.64727C23.2251 8.34961 22.9206 8.16147 22.5879 8.16147C22.2549 8.16147 21.9507 8.34961 21.8017 8.64727L19.6624 12.9254L14.9345 13.6371C14.6053 13.6866 14.3323 13.918 14.2293 14.2345C14.1263 14.5514 14.2115 14.8989 14.4484 15.1323ZM20.3755 14.5957C20.6584 14.5531 20.9029 14.3756 21.0309 14.1199L22.5879 11.0056L24.1449 14.1199C24.2729 14.3756 24.5174 14.5531 24.8003 14.5957L28.2414 15.1138L25.7616 17.5565C25.558 17.7574 25.4646 18.0447 25.5113 18.3269L26.0819 21.7605L22.9927 20.1565C22.866 20.0906 22.7269 20.0576 22.5879 20.0576C22.4489 20.0576 22.3098 20.0906 22.1828 20.1565L19.0936 21.7605L19.6642 18.3269C19.7112 18.0447 19.6178 17.7574 19.4139 17.5565L16.9344 15.1138L20.3755 14.5957Z" fill="url(#paint1_linear_8:33)"/>
<path d="M23.4668 0.8789C23.4668 1.36436 23.0734 1.75781 22.5879 1.75781C22.1024 1.75781 21.709 1.36436 21.709 0.8789C21.709 0.393441 22.1024 -7.62939e-06 22.5879 -7.62939e-06C23.0734 -7.62939e-06 23.4668 0.393441 23.4668 0.8789Z" fill="url(#paint2_linear_8:33)"/>
<path d="M18.4457 0.518063C11.0522 2.40531 5.88864 9.05926 5.88864 16.6992C5.88864 21.4443 7.88369 25.9154 11.3859 29.0819L6.09086 38.4138C5.92057 38.7142 5.94186 39.0863 6.1451 39.3651C6.34835 39.6442 6.69579 39.7785 7.03397 39.7081L13.0473 38.4594L15.1608 44.415C15.2754 44.7391 15.569 44.9661 15.9116 44.9966C16.2543 45.0272 16.5828 44.8545 16.7528 44.5555L22.5879 34.297L28.4227 44.5555C28.5799 44.8318 28.8724 44.9997 29.1862 44.9997C29.212 44.9997 29.2381 44.9987 29.2638 44.9966C29.6064 44.9661 29.9 44.7388 30.015 44.415L32.1282 38.4594L38.1415 39.7081C38.4793 39.7781 38.8271 39.6439 39.0303 39.3651C39.2339 39.0863 39.2549 38.7142 39.0846 38.4138L33.7895 29.0819C37.2917 25.9154 39.2868 21.4443 39.2868 16.6992C39.2868 9.05926 34.1232 2.40531 26.7301 0.518063C26.2594 0.3979 25.7811 0.681828 25.661 1.15218C25.5408 1.62253 25.8247 2.10113 26.2951 2.22129C32.9096 3.90975 37.5293 9.86332 37.5293 16.6992C37.5293 25.019 30.7724 31.6407 22.5879 31.6407C14.3976 31.6407 7.64646 25.0135 7.64646 16.6992C7.64646 9.86332 12.2659 3.90975 18.8803 2.22129C19.3507 2.10113 19.6346 1.62253 19.5148 1.15218C19.3946 0.681828 18.9164 0.3979 18.4457 0.518063ZM16.1749 42.0166L14.4477 37.1493C14.3007 36.7352 13.8709 36.4932 13.4407 36.5825L8.57824 37.5922L12.7688 30.2066C15.2123 31.983 18.1055 33.0651 21.114 33.3329L16.1749 42.0166ZM31.7347 36.5825C31.3049 36.4932 30.8747 36.7352 30.7277 37.1493L29.0008 42.0166L24.0614 33.3329C27.0703 33.0651 29.9632 31.983 32.4069 30.2066L36.5975 37.5922L31.7347 36.5825Z" fill="url(#paint3_linear_8:33)"/>
</g>
<defs>
<linearGradient id="paint0_linear_8:33" x1="9.40427" y1="29.8829" x2="36.5237" y2="29.0851" gradientUnits="userSpaceOnUse">
<stop stop-color="#259BDE"/>
<stop offset="1" stop-color="#5BC4FF"/>
</linearGradient>
<linearGradient id="paint1_linear_8:33" x1="14.1863" y1="24.2297" x2="31.4672" y2="23.6981" gradientUnits="userSpaceOnUse">
<stop stop-color="#259BDE"/>
<stop offset="1" stop-color="#5BC4FF"/>
</linearGradient>
<linearGradient id="paint2_linear_8:33" x1="21.709" y1="1.75781" x2="23.5169" y2="1.70462" gradientUnits="userSpaceOnUse">
<stop stop-color="#259BDE"/>
<stop offset="1" stop-color="#5BC4FF"/>
</linearGradient>
<linearGradient id="paint3_linear_8:33" x1="5.88864" y1="45.0001" x2="40.2525" y2="44.2416" gradientUnits="userSpaceOnUse">
<stop stop-color="#259BDE"/>
<stop offset="1" stop-color="#5BC4FF"/>
</linearGradient>
<clipPath id="clip0_8:33">
<rect width="45" height="45" fill="white"/>
</clipPath>
</defs>
</svg>
