<svg width="45" height="45" viewBox="0 0 45 45" fill="none" xmlns="http://www.w3.org/2000/svg">
<path d="M44.2969 15.1425C44.2969 13.384 42.866 11.9531 41.1075 11.9531C40.256 11.9531 39.4545 12.285 38.8526 12.8876L36.7685 14.9716L34.4531 17.287V10.4906C36.8346 10.1475 38.6719 8.0993 38.6719 5.625C38.6719 2.91094 36.4641 0.703125 33.75 0.703125H5.625C2.91094 0.703125 0.703125 2.91094 0.703125 5.625V40.7812C0.703125 41.1694 1.01812 41.4844 1.40625 41.4844H4.92188V43.5938C4.92188 43.9819 5.23688 44.2969 5.625 44.2969H33.75C34.1381 44.2969 34.4531 43.9819 34.4531 43.5938V26.3067L41.2784 19.4815L42.0005 18.7594C41.6362 20.5734 40.7482 22.2412 39.4109 23.5793L36.0661 26.9241L37.0603 27.9183L40.4051 24.5735C42.4005 22.578 43.5164 19.9427 43.5818 17.1309C44.0367 16.567 44.2969 15.878 44.2969 15.1425ZM39.8468 13.8818C40.1836 13.545 40.6315 13.3594 41.1075 13.3594C42.0905 13.3594 42.8906 14.1595 42.8906 15.1425C42.8906 15.6185 42.705 16.0664 42.3682 16.4032L40.7812 17.9902L38.2598 15.4688L39.8468 13.8818ZM37.2656 16.463L38.0292 17.2266L29.1797 26.0761L28.4161 25.3125L37.2656 16.463ZM20.5432 35.0177L21.9895 32.1244L24.1256 34.2605L21.2323 35.7068L20.5432 35.0177ZM22.7911 30.9375L27.4219 26.3067L29.9433 28.8281L25.3125 33.4589L22.7911 30.9375ZM33.75 2.10938C35.6885 2.10938 37.2656 3.68648 37.2656 5.625C37.2656 7.56352 35.6885 9.14062 33.75 9.14062H9.06328C9.97734 8.24625 10.5469 7.00172 10.5469 5.625C10.5469 4.24828 9.97734 3.00375 9.06328 2.10938H33.75ZM6.32812 9.06961V7.03125C6.32812 6.64383 6.64383 6.32812 7.03125 6.32812H9.06961C8.78906 7.70344 7.70344 8.78906 6.32812 9.06961ZM2.10938 40.0781V5.625C2.10938 3.68648 3.68648 2.10938 5.625 2.10938C7.32234 2.10938 8.74266 3.31945 9.06961 4.92188H7.03125C5.86828 4.92188 4.92188 5.86828 4.92188 7.03125V40.0781H2.10938ZM33.0469 42.8906H6.32812V10.5469H33.0469V18.6933L29.9433 21.7969H9.14062V23.2031H28.537L27.1308 24.6094H9.14062V26.0156H25.7245L21.2998 30.4404C21.2449 30.4952 21.2091 30.5606 21.176 30.6267L21.1683 30.6225L19.0589 34.8412C18.9239 35.1119 18.9766 35.4389 19.1911 35.6527L19.3964 35.8594L17.7841 37.4716L18.7784 38.4659L20.3906 36.8536L20.5966 37.0596C20.7316 37.1946 20.9116 37.2656 21.0938 37.2656C21.1999 37.2656 21.3082 37.241 21.408 37.1918L25.6268 35.0824L25.6226 35.0747C25.6887 35.0416 25.7541 35.0058 25.8089 34.9509L31.4339 29.3259L33.0469 27.713V42.8906ZM30.9375 27.8339L30.1739 27.0703L39.0234 18.2208L39.787 18.9844L30.9375 27.8339Z" fill="url(#paint0_linear_8:39)"/>
<path d="M9.14062 13.3594H30.2344V14.7656H9.14062V13.3594Z" fill="url(#paint1_linear_8:39)"/>
<path d="M9.14062 16.1719H30.2344V17.5781H9.14062V16.1719Z" fill="url(#paint2_linear_8:39)"/>
<path d="M9.14062 18.9844H30.2344V20.3906H9.14062V18.9844Z" fill="url(#paint3_linear_8:39)"/>
<path d="M9.14062 35.8594H16.875V37.2656H9.14062V35.8594Z" fill="url(#paint4_linear_8:39)"/>
<path d="M9.14062 38.6719H30.2344V40.0781H9.14062V38.6719Z" fill="url(#paint5_linear_8:39)"/>
<defs>
<linearGradient id="paint0_linear_8:39" x1="0.703125" y1="44.2969" x2="45.5404" y2="42.9779" gradientUnits="userSpaceOnUse">
<stop stop-color="#259BDE"/>
<stop offset="1" stop-color="#5BC4FF"/>
</linearGradient>
<linearGradient id="paint1_linear_8:39" x1="9.14063" y1="14.7656" x2="27.3162" y2="6.74578" gradientUnits="userSpaceOnUse">
<stop stop-color="#259BDE"/>
<stop offset="1" stop-color="#5BC4FF"/>
</linearGradient>
<linearGradient id="paint2_linear_8:39" x1="9.14063" y1="17.5781" x2="27.3162" y2="9.55828" gradientUnits="userSpaceOnUse">
<stop stop-color="#259BDE"/>
<stop offset="1" stop-color="#5BC4FF"/>
</linearGradient>
<linearGradient id="paint3_linear_8:39" x1="9.14063" y1="20.3906" x2="27.3162" y2="12.3708" gradientUnits="userSpaceOnUse">
<stop stop-color="#259BDE"/>
<stop offset="1" stop-color="#5BC4FF"/>
</linearGradient>
<linearGradient id="paint4_linear_8:39" x1="9.14063" y1="37.2656" x2="16.8994" y2="36.0103" gradientUnits="userSpaceOnUse">
<stop stop-color="#259BDE"/>
<stop offset="1" stop-color="#5BC4FF"/>
</linearGradient>
<linearGradient id="paint5_linear_8:39" x1="9.14063" y1="40.0781" x2="27.3162" y2="32.0583" gradientUnits="userSpaceOnUse">
<stop stop-color="#259BDE"/>
<stop offset="1" stop-color="#5BC4FF"/>
</linearGradient>
</defs>
</svg>
