<svg width="84" height="84" viewBox="0 0 84 84" fill="none" xmlns="http://www.w3.org/2000/svg">
<path d="M17.0625 45.9375C11.2731 45.9375 6.5625 50.6481 6.5625 56.4375C6.5625 62.2269 11.2731 66.9375 17.0625 66.9375C22.8519 66.9375 27.5625 62.2269 27.5625 56.4375C27.5625 50.6481 22.8519 45.9375 17.0625 45.9375ZM17.0625 64.3125C12.7194 64.3125 9.1875 60.7806 9.1875 56.4375C9.1875 52.0944 12.7194 48.5625 17.0625 48.5625C21.4056 48.5625 24.9375 52.0944 24.9375 56.4375C24.9375 60.7806 21.4056 64.3125 17.0625 64.3125Z" fill="url(#paint0_linear_1:211)"/>
<path d="M79.6136 12.0894L79.0597 11.8125C78.0596 11.3124 77.4375 10.3071 77.4375 9.1875C77.4375 7.06781 76.2602 5.16206 74.3636 4.21444L70.6427 2.35331C69.2803 1.67212 67.7552 1.3125 66.2314 1.3125H66.0148C62.0642 1.3125 58.5047 3.65925 56.9481 7.29225L56.1317 9.19537C55.6342 10.3582 54.8349 11.3741 53.8217 12.1341C51.3502 13.9873 49.875 16.9365 49.875 20.0261V21.6103C49.875 24.8929 52.5459 27.5625 55.8285 27.5625C57.4192 27.5625 58.9142 26.943 60.0377 25.8195L63.378 22.4779C64.3322 21.525 65.5988 21 66.9454 21C68.8682 21 70.5981 22.0684 71.4578 23.7891C72.2177 25.3063 73.7441 26.25 75.4412 26.25C79.4364 26.25 82.6875 22.9989 82.6875 19.0037V17.0625C82.6875 14.9428 81.5102 13.0371 79.6136 12.0894ZM80.0625 19.0037C80.0625 21.5513 77.9888 23.625 75.4412 23.625C74.7442 23.625 74.1182 23.2378 73.8071 22.6144C72.4986 19.9999 69.8696 18.375 66.9467 18.375C64.8979 18.375 62.9724 19.1717 61.5234 20.622L58.1831 23.9636C57.5531 24.591 56.7171 24.9375 55.8285 24.9375C53.9936 24.9375 52.5 23.4439 52.5 21.6103V20.0261C52.5 17.7594 53.5828 15.5938 55.3967 14.2341C56.7774 13.1998 57.8655 11.8138 58.5441 10.2283L59.3604 8.32519C60.5023 5.66081 63.1142 3.9375 66.0148 3.9375H66.2314C67.3496 3.9375 68.4692 4.20131 69.4693 4.70138L73.1903 6.5625C74.1904 7.06256 74.8125 8.06794 74.8125 9.1875C74.8125 11.3072 75.9898 13.2129 77.8864 14.1606L78.4403 14.4375C79.4404 14.9376 80.0625 15.9429 80.0625 17.0625V19.0037Z" fill="url(#paint1_linear_1:211)"/>
<path d="M30.786 23.0199C31.4055 23.2273 31.899 23.7208 32.1051 24.3403C32.7482 26.2684 34.5437 27.5625 36.5754 27.5625H39.9118C42.5093 27.5625 44.6237 25.4481 44.6237 22.8493V21.6773C44.6237 19.929 43.575 18.3789 41.9501 17.7279L38.2751 16.2579C37.9037 16.1109 37.6018 15.8314 37.4233 15.4744C36.6988 14.0267 35.2419 13.125 33.621 13.125H32.2744C29.6769 13.125 27.5625 15.2394 27.5625 17.8382V18.5496C27.5625 20.5826 28.8579 22.3781 30.786 23.0199ZM30.1875 17.8382C30.1875 16.6871 31.1233 15.75 32.2744 15.75H33.6197C34.2405 15.75 34.797 16.0952 35.0753 16.6504C35.5412 17.5822 36.3313 18.3094 37.2999 18.6979L40.9749 20.1679C41.5971 20.4159 41.9987 21.0105 41.9987 21.6786V22.8506C42 24.0004 41.0642 24.9375 39.9131 24.9375H36.5767C35.6764 24.9375 34.881 24.3626 34.5962 23.5095C34.1302 22.1117 33.0159 20.9974 31.6155 20.5301C30.7611 20.2466 30.1875 19.4486 30.1875 18.5496V17.8382Z" fill="url(#paint2_linear_1:211)"/>
<path d="M78.75 43.3125H74.949C73.4659 43.3125 72.009 42.8019 70.8501 41.8753L68.6018 40.0746C66.9782 38.7778 64.9412 38.0625 62.8635 38.0625H58.5979C55.1473 38.0625 52.0433 39.9801 50.5011 43.0671C49.6138 44.8376 47.8341 45.9375 45.8548 45.9375C44.4531 45.9375 43.3125 44.7969 43.3125 43.3952C43.3125 42.8019 43.5212 42.2231 43.9018 41.7677L48.8998 35.7696C49.5285 35.0162 49.875 34.0594 49.875 33.0776C49.875 30.7611 47.9889 28.875 45.6711 28.875C42.9529 28.875 40.3974 29.9342 38.4759 31.8557L36.8156 33.5147C35.5766 34.7537 33.9294 35.4375 32.1759 35.4375H31.5C29.4459 35.4375 27.4824 34.4558 26.25 32.8112C25.4034 31.6851 24.9375 30.2859 24.9375 28.875V26.4416C24.9375 24.2051 23.6946 22.1944 21.693 21.1916L17.682 19.1874C16.6202 18.6559 15.4324 18.375 14.2459 18.375C10.0091 18.375 6.5625 21.8216 6.5625 26.0584C6.5625 27.2934 5.87475 28.4064 4.65937 29.0154C2.59481 30.0471 1.3125 32.1221 1.3125 34.4295C1.3125 37.1608 3.15394 39.5653 5.79075 40.2754L11.2757 41.7546C5.45475 44.0199 1.3125 49.6689 1.3125 56.28C1.3125 59.2056 2.13281 62.0629 3.68287 64.5435L13.9414 80.9589C14.6186 82.0417 15.7854 82.6875 17.0625 82.6875C18.3396 82.6875 19.5064 82.0417 20.1836 80.9589L30.4421 64.5435C31.2021 63.3281 31.7835 62.0222 32.1812 60.6624C34.9059 65.3651 39.8698 68.25 45.3613 68.25C49.9826 68.25 54.2023 70.9682 56.1146 75.1748L58.5414 80.514C59.1426 81.8357 60.4669 82.6875 61.9172 82.6875C63.9621 82.6875 65.625 81.0233 65.625 78.9797V76.3652C65.625 73.8701 66.3036 71.4197 67.5872 69.2816C68.2342 68.2027 68.4049 66.8916 68.0518 65.6841C67.7001 64.4752 66.8522 63.4607 65.7274 62.8976L61.9224 60.9958C60.1584 60.1125 59.0625 58.338 59.0625 56.364C59.0625 53.5106 61.3856 51.1875 64.239 51.1875H78.75C80.9209 51.1875 82.6875 49.4209 82.6875 47.25C82.6875 45.0791 80.9209 43.3125 78.75 43.3125ZM28.2161 63.1509L17.9576 79.5664C17.5704 80.1872 16.5559 80.1872 16.1687 79.5664L5.90887 63.1509C4.62 61.089 3.9375 58.7121 3.9375 56.28C3.9375 49.1295 9.7545 43.3125 16.905 43.3125H17.22C24.3705 43.3125 30.1875 49.1295 30.1875 56.28C30.1875 58.7121 29.505 61.089 28.2161 63.1509ZM78.75 48.5625H64.239C59.9379 48.5625 56.4375 52.0629 56.4375 56.364C56.4375 59.3394 58.0899 62.013 60.7504 63.3412L64.554 65.2431C65.0344 65.4832 65.3822 65.8993 65.5318 66.4151C65.6814 66.9323 65.6132 67.4691 65.3363 67.9284C63.8085 70.4773 63 73.3937 63 76.3652V78.9797C63 79.5769 62.5144 80.0625 61.9172 80.0625C61.4932 80.0625 61.1061 79.8144 60.9315 79.4286L58.5047 74.0893C56.1671 68.9469 51.009 65.625 45.3613 65.625C40.5497 65.625 36.225 62.9514 34.0725 58.6491L32.8033 56.1107C32.7114 47.6647 25.8759 40.8148 17.4353 40.6993L6.47325 37.7423C4.97963 37.338 3.9375 35.9769 3.9375 34.4295C3.9375 33.1223 4.66331 31.9476 5.943 31.3084C7.94456 30.3069 9.1875 28.2962 9.1875 26.0584C9.1875 23.2693 11.4568 21 14.2459 21C15.0268 21 15.8091 21.1851 16.5086 21.5342L20.5183 23.5384C21.6248 24.0922 22.3125 25.2052 22.3125 26.4416V28.875C22.3125 30.8516 22.9661 32.8086 24.15 34.3862C25.8759 36.6883 28.6243 38.0625 31.5 38.0625H32.1759C34.6316 38.0625 36.9377 37.1057 38.6728 35.3706L40.3331 33.7116C41.7585 32.2862 43.6551 31.5 45.6711 31.5C46.5413 31.5 47.25 32.2074 47.25 33.0776C47.25 33.4464 47.1201 33.8061 46.8838 34.0896L41.8845 40.0877C41.1128 41.0143 40.6875 42.189 40.6875 43.3952C40.6875 46.2446 43.0054 48.5625 45.8548 48.5625C48.8355 48.5625 51.5156 46.9061 52.8478 44.2404C53.9437 42.0486 56.1461 40.6875 58.5966 40.6875H62.8622C64.3453 40.6875 65.8022 41.1981 66.9611 42.1247L69.2094 43.9254C70.8343 45.2222 72.8713 45.9375 74.949 45.9375H78.75C79.4732 45.9375 80.0625 46.5255 80.0625 47.25C80.0625 47.9745 79.4732 48.5625 78.75 48.5625Z" fill="url(#paint3_linear_1:211)"/>
<path d="M76.125 28.875C72.5064 28.875 69.5625 31.2296 69.5625 34.125C69.5625 37.0204 72.5064 39.375 76.125 39.375C79.7436 39.375 82.6875 37.0204 82.6875 34.125C82.6875 31.2296 79.7436 28.875 76.125 28.875ZM76.125 36.75C73.9909 36.75 72.1875 35.5477 72.1875 34.125C72.1875 32.7023 73.9909 31.5 76.125 31.5C78.2591 31.5 80.0625 32.7023 80.0625 34.125C80.0625 35.5477 78.2591 36.75 76.125 36.75Z" fill="url(#paint4_linear_1:211)"/>
<path d="M38.437 56.052L40.2931 54.1959L42.9177 56.8205L41.0616 58.6766L38.437 56.052Z" fill="url(#paint5_linear_1:211)"/>
<path d="M48.937 52.8842L51.5616 50.2596L53.4177 52.1157L50.7931 54.7403L48.937 52.8842Z" fill="url(#paint6_linear_1:211)"/>
<path d="M31.8771 42.927L33.7332 41.0709L36.3578 43.6955L34.5017 45.5516L31.8771 42.927Z" fill="url(#paint7_linear_1:211)"/>
<path d="M12.5265 26.3809L15.1502 25.0691L16.3235 27.4158L13.6999 28.7277L12.5265 26.3809Z" fill="url(#paint8_linear_1:211)"/>
<path d="M12.7308 34.2014L16.6692 32.8858L17.501 35.3756L13.5625 36.6912L12.7308 34.2014Z" fill="url(#paint9_linear_1:211)"/>
<path d="M51.1875 61.6875H53.8125V64.3125H51.1875V61.6875Z" fill="url(#paint10_linear_1:211)"/>
<path d="M59.4355 44.2419L61.2916 42.3858L62.6039 43.6981L60.7478 45.5542L59.4355 44.2419Z" fill="url(#paint11_linear_1:211)"/>
<path d="M63.3771 7.49739L65.2332 5.64124L67.8578 8.26584L66.0017 10.122L63.3771 7.49739Z" fill="url(#paint12_linear_1:211)"/>
<path d="M68.943 13.273L71.5667 11.9611L72.74 14.3079L70.1164 15.6197L68.943 13.273Z" fill="url(#paint13_linear_1:211)"/>
<path d="M57.1456 15.6329L58.319 13.2861L60.9426 14.5979L59.7693 16.9447L57.1456 15.6329Z" fill="url(#paint14_linear_1:211)"/>
<defs>
<linearGradient id="paint0_linear_1:211" x1="6.5625" y1="66.9375" x2="28.1616" y2="66.3021" gradientUnits="userSpaceOnUse">
<stop stop-color="#259BDE"/>
<stop offset="1" stop-color="#5BC4FF"/>
</linearGradient>
<linearGradient id="paint1_linear_1:211" x1="49.875" y1="27.5625" x2="83.6071" y2="26.3222" gradientUnits="userSpaceOnUse">
<stop stop-color="#259BDE"/>
<stop offset="1" stop-color="#5BC4FF"/>
</linearGradient>
<linearGradient id="paint2_linear_1:211" x1="27.5625" y1="27.5625" x2="45.1044" y2="26.9527" gradientUnits="userSpaceOnUse">
<stop stop-color="#259BDE"/>
<stop offset="1" stop-color="#5BC4FF"/>
</linearGradient>
<linearGradient id="paint3_linear_1:211" x1="1.3125" y1="82.6875" x2="84.9654" y2="79.5739" gradientUnits="userSpaceOnUse">
<stop stop-color="#259BDE"/>
<stop offset="1" stop-color="#5BC4FF"/>
</linearGradient>
<linearGradient id="paint4_linear_1:211" x1="69.5625" y1="39.375" x2="83.0553" y2="38.8789" gradientUnits="userSpaceOnUse">
<stop stop-color="#259BDE"/>
<stop offset="1" stop-color="#5BC4FF"/>
</linearGradient>
<linearGradient id="paint5_linear_1:211" x1="41.0616" y1="58.6766" x2="42.9318" y2="56.727" gradientUnits="userSpaceOnUse">
<stop stop-color="#259BDE"/>
<stop offset="1" stop-color="#5BC4FF"/>
</linearGradient>
<linearGradient id="paint6_linear_1:211" x1="50.7931" y1="54.7403" x2="53.3781" y2="51.931" gradientUnits="userSpaceOnUse">
<stop stop-color="#259BDE"/>
<stop offset="1" stop-color="#5BC4FF"/>
</linearGradient>
<linearGradient id="paint7_linear_1:211" x1="34.5017" y1="45.5516" x2="36.3719" y2="43.602" gradientUnits="userSpaceOnUse">
<stop stop-color="#259BDE"/>
<stop offset="1" stop-color="#5BC4FF"/>
</linearGradient>
<linearGradient id="paint8_linear_1:211" x1="13.6999" y1="28.7277" x2="16.3534" y2="27.29" gradientUnits="userSpaceOnUse">
<stop stop-color="#259BDE"/>
<stop offset="1" stop-color="#5BC4FF"/>
</linearGradient>
<linearGradient id="paint9_linear_1:211" x1="13.5625" y1="36.6912" x2="17.5452" y2="35.1516" gradientUnits="userSpaceOnUse">
<stop stop-color="#259BDE"/>
<stop offset="1" stop-color="#5BC4FF"/>
</linearGradient>
<linearGradient id="paint10_linear_1:211" x1="51.1875" y1="64.3125" x2="53.8874" y2="64.2331" gradientUnits="userSpaceOnUse">
<stop stop-color="#259BDE"/>
<stop offset="1" stop-color="#5BC4FF"/>
</linearGradient>
<linearGradient id="paint11_linear_1:211" x1="60.7478" y1="45.5542" x2="62.5758" y2="43.5674" gradientUnits="userSpaceOnUse">
<stop stop-color="#259BDE"/>
<stop offset="1" stop-color="#5BC4FF"/>
</linearGradient>
<linearGradient id="paint12_linear_1:211" x1="66.0017" y1="10.122" x2="67.8719" y2="8.17233" gradientUnits="userSpaceOnUse">
<stop stop-color="#259BDE"/>
<stop offset="1" stop-color="#5BC4FF"/>
</linearGradient>
<linearGradient id="paint13_linear_1:211" x1="70.1164" y1="15.6197" x2="72.7699" y2="14.182" gradientUnits="userSpaceOnUse">
<stop stop-color="#259BDE"/>
<stop offset="1" stop-color="#5BC4FF"/>
</linearGradient>
<linearGradient id="paint14_linear_1:211" x1="59.7693" y1="16.9447" x2="60.9128" y2="14.4988" gradientUnits="userSpaceOnUse">
<stop stop-color="#259BDE"/>
<stop offset="1" stop-color="#5BC4FF"/>
</linearGradient>
</defs>
</svg>
