<svg width="84" height="84" viewBox="0 0 84 84" fill="none" xmlns="http://www.w3.org/2000/svg">
<path d="M77 81.2V73.9508C79.6885 72.8171 81.3711 70.1127 81.2 67.2C81.2 63.3402 78.6884 60.2 75.6 60.2C72.5116 60.2 70 63.3402 70 67.2C69.8288 70.1127 71.5115 72.8171 74.2 73.9508V81.2H67.2V37.8C67.2002 37.2694 66.9004 36.7841 66.4258 36.547L56 31.3348V23.8C56.0004 23.1747 55.5861 22.625 54.985 22.4532L36.4 17.143V1.4C36.4 0.62685 35.7731 0 35 0H7C6.22685 0 5.6 0.62685 5.6 1.4V81.2H0V84H84V81.2H77ZM33.6 81.2H8.4V78.4H21V75.6H8.4V70H21V67.2H8.4V61.6H21V58.8H8.4V53.2H21V50.4H8.4V44.8H21V42H8.4V36.4H21V33.6H8.4V28H21V25.2H8.4V19.6H21V16.8H8.4V11.2H21V8.4H8.4V2.8H33.6V81.2ZM53.2 81.2H36.4V78.4H46.2V75.6H36.4V70H46.2V67.2H36.4V61.6H46.2V58.8H36.4V53.2H46.2V50.4H36.4V44.8H46.2V42H36.4V36.4H46.2V33.6H36.4V28H46.2V25.2H36.4V20.0564L53.2 24.8556V81.2ZM64.4 81.2H56V78.4H60.2V75.6H56V70H60.2V67.2H56V61.6H60.2V58.8H56V53.2H60.2V50.4H56V44.8H60.2V42H56V34.4652L64.4 38.6652V81.2ZM74.2 70.798C73.2597 69.8413 72.7536 68.5405 72.8 67.2C72.8 64.9236 74.0824 63 75.6 63C77.1176 63 78.4 64.9236 78.4 67.2C78.4453 68.5403 77.9394 69.8408 77 70.798V68.6H74.2V70.798Z" fill="url(#paint0_linear_8:3)"/>
<defs>
<linearGradient id="paint0_linear_8:3" x1="6.25849e-07" y1="84" x2="86.3962" y2="81.4586" gradientUnits="userSpaceOnUse">
<stop stop-color="#259BDE"/>
<stop offset="1" stop-color="#5BC4FF"/>
</linearGradient>
</defs>
</svg>
